<svg viewBox="0 0 405 829" xmlns="http://www.w3.org/2000/svg"><path d="M339,0 L63,0 C28.2061,0 0,28.2061 0,63 L0,766 C0,800.794 28.2061,829 63,829 L339,829 C373.794,829 402,800.794 402,766 L402,446 C403.657,446 405,444.657 405,443 L405,335 C405,333.343 403.657,332 402,332 L402,262 C403.657,262 405,260.657 405,259 L405,208 C405,206.343 403.657,205 402,205 L402,63 C402,28.2061 373.794,0 339,0 L339,0 Z" fill="#424242"/><path d="M284,87 L0,87 L0,77 L284,77 L284,0 L292,0 L292,77 L402,77 L402,87 L292,87 L292,771 L401.804,771 C401.481,775.124 400.76,779.137 399.68,783 L2.32031,783 C1.24036,779.137 0.519409,775.124 0.195557,771 L284,771 L284,87 Z" fill="#353535"/><path d="M8,63 C8,32.6243 32.6243,8 63,8 L339,8 C369.376,8 394,32.6243 394,63 L394,766 C394,796.376 369.376,821 339,821 L63,821 C32.6243,821 8,796.376 8,766 L8,63 L8,63 Z" fill="#1d1d1d"/><path d="M185,76.5 C185,72.91015 187.91015,70 191.5,70 L210.5,70 C214.0899,70 217,72.91015 217,76.5 C217,80.0899 214.0899,83 210.5,83 L191.5,83 C187.91015,83 185,80.0899 185,76.5 Z M20,93 L382,93 L382,735 L20,735 L20,93 Z" fill="#000"/><polygon fill="#fff" points="21 94 381 94 381 734 21 734"/><path d="M87,42 C87,46.9706 82.9706,51 78,51 C73.02944,51 69,46.9706 69,42 C69,37.02944 73.02944,33 78,33 C82.9706,33 87,37.02944 87,42 Z M157,42 C157,40.34315 158.34315,39 160,39 L242,39 C243.6569,39 245,40.34315 245,42 C245,43.65685 243.6569,45 242,45 L160,45 C158.34315,45 157,43.65685 157,42 Z" fill="#424242"/><path d="M83,42 C83,44.76142 80.76142,47 78,47 C75.23858,47 73,44.76142 73,42 C73,39.23858 75.23858,37 78,37 C80.76142,37 83,39.23858 83,42 L83,42 Z" fill="#212121"/></svg>