<svg width="524" height="192" viewBox="0 0 524 192" version="1.1" xmlns="http://www.w3.org/2000/svg" xmlns:xlink="http://www.w3.org/1999/xlink">
<title>Source</title>
<desc>Created using Figma</desc>
<g id="Canvas" transform="translate(-1124 -969)">
<g id="Source">
<g id="btn">
<use xlink:href="#path0_fill" transform="translate(1124 969)" fill="#424242"/>
</g>
<g id="icon + Google play + Get it on">
<g id="&#60;Source /&#62;">
<use xlink:href="#path1_fill" transform="translate(1124 969)" fill="#FFFFFF"/>
</g>
</g>
</g>
</g>
<defs>
<path id="path0_fill" fill-rule="evenodd" d="M 12 0C 5.37258 0 0 5.37258 0 12L 0 180C 0 186.627 5.37258 192 12 192L 512 192C 518.627 192 524 186.627 524 180L 524 12C 524 5.37258 518.627 0 512 0L 12 0Z"/>
<path id="path1_fill" d="M 82.8682 108.678L 38.5292 91.407L 38.5292 83.529L 82.8682 66.258L 82.8682 75.146L 62.7692 82.317L 49.2352 87.266L 49.2352 87.67L 62.7692 92.619L 82.8682 99.79L 82.8682 108.678ZM 113.859 122.212C 109.347 122.212 105.038 121.37 100.931 119.687C 96.8906 117.936 93.3556 115.546 90.3256 112.516L 96.4866 105.244C 98.8433 107.533 101.57 109.419 104.668 110.9C 107.765 112.314 110.896 113.021 114.061 113.021C 118.033 113.021 121.063 112.179 123.151 110.496C 125.305 108.745 126.383 106.49 126.383 103.729C 126.383 100.766 125.373 98.6453 123.353 97.366C 121.4 96.0193 118.909 94.6727 115.879 93.326L 106.688 89.286C 103.523 87.9393 100.493 85.9193 97.5976 83.226C 94.7023 80.5327 93.2546 76.762 93.2546 71.914C 93.2546 66.7293 95.3083 62.3863 99.4156 58.885C 103.523 55.3837 108.741 53.633 115.071 53.633C 118.909 53.633 122.578 54.4073 126.08 55.956C 129.581 57.4373 132.577 59.4573 135.069 62.016L 129.615 68.783C 127.527 66.8977 125.305 65.45 122.949 64.44C 120.592 63.43 117.966 62.925 115.071 62.925C 111.771 62.925 109.078 63.6657 106.991 65.147C 104.971 66.6283 103.961 68.682 103.961 71.308C 103.961 74.0687 105.072 76.156 107.294 77.57C 109.516 78.9167 111.973 80.1287 114.667 81.206L 123.757 85.044C 127.662 86.7273 130.86 88.9157 133.352 91.609C 135.91 94.3023 137.19 98.0393 137.19 102.82C 137.19 108.207 135.102 112.785 130.928 116.556C 126.82 120.327 121.131 122.212 113.859 122.212ZM 168.501 122.212C 162.374 122.212 156.954 119.956 152.24 115.445C 147.594 110.934 145.271 104.571 145.271 96.356C 145.271 88.1413 147.594 81.7783 152.24 77.267C 156.954 72.6883 162.374 70.399 168.501 70.399C 174.629 70.399 180.049 72.6883 184.762 77.267C 189.476 81.7783 191.832 88.1413 191.832 96.356C 191.832 104.571 189.476 110.934 184.762 115.445C 180.049 119.956 174.629 122.212 168.501 122.212ZM 168.501 113.627C 172.339 113.627 175.369 112.045 177.591 108.88C 179.881 105.715 181.025 101.541 181.025 96.356C 181.025 91.1713 179.881 86.9967 177.591 83.832C 175.369 80.6 172.339 78.984 168.501 78.984C 164.663 78.984 161.6 80.6 159.31 83.832C 157.088 86.9967 155.977 91.1713 155.977 96.356C 155.977 101.541 157.088 105.715 159.31 108.88C 161.6 112.045 164.663 113.627 168.501 113.627ZM 218.484 122.212C 213.164 122.212 209.293 120.529 206.869 117.162C 204.445 113.795 203.233 108.981 203.233 102.719L 203.233 71.611L 213.737 71.611L 213.737 101.305C 213.737 105.547 214.376 108.611 215.656 110.496C 217.002 112.314 219.123 113.223 222.019 113.223C 224.308 113.223 226.328 112.651 228.079 111.506C 229.829 110.294 231.715 108.409 233.735 105.85L 233.735 71.611L 244.239 71.611L 244.239 121L 235.654 121L 234.745 113.526L 234.442 113.526C 232.287 116.152 229.93 118.273 227.372 119.889C 224.813 121.438 221.85 122.212 218.484 122.212ZM 259.566 121L 259.566 71.611L 268.252 71.611L 269.06 80.398L 269.363 80.398C 272.932 73.732 277.611 70.399 283.402 70.399C 285.624 70.399 287.442 70.7357 288.856 71.409L 287.038 80.499C 286.163 80.2297 285.355 80.0277 284.614 79.893C 283.941 79.7583 283.065 79.691 281.988 79.691C 280.035 79.691 277.948 80.499 275.726 82.115C 273.504 83.6637 271.619 86.3907 270.07 90.296L 270.07 121L 259.566 121ZM 315.57 122.212C 308.904 122.212 303.315 119.956 298.804 115.445C 294.293 110.934 292.037 104.571 292.037 96.356C 292.037 88.1413 294.461 81.7783 299.309 77.267C 304.224 72.6883 309.948 70.399 316.479 70.399C 319.644 70.399 322.404 70.9377 324.761 72.015C 327.118 73.0923 329.171 74.4053 330.922 75.954L 325.771 82.822C 322.876 80.2633 319.947 78.984 316.984 78.984C 312.809 78.984 309.375 80.6 306.682 83.832C 304.056 86.9967 302.743 91.1713 302.743 96.356C 302.743 101.541 304.022 105.715 306.581 108.88C 309.207 112.045 312.574 113.627 316.681 113.627C 318.701 113.627 320.62 113.189 322.438 112.314C 324.256 111.439 325.906 110.361 327.387 109.082L 331.73 116.051C 327.017 120.158 321.63 122.212 315.57 122.212ZM 360.164 122.212C 353.43 122.212 347.741 119.956 343.095 115.445C 338.449 110.866 336.126 104.503 336.126 96.356C 336.126 90.9693 337.203 86.357 339.358 82.519C 341.512 78.6137 344.307 75.6173 347.741 73.53C 351.175 71.4427 354.811 70.399 358.649 70.399C 365.247 70.399 370.264 72.5537 373.698 76.863C 377.132 81.105 378.849 86.7273 378.849 93.73C 378.849 95.952 378.68 97.7363 378.344 99.083L 346.327 99.083C 346.798 103.729 348.38 107.399 351.074 110.092C 353.834 112.718 357.336 114.031 361.578 114.031C 363.732 114.031 365.752 113.694 367.638 113.021C 369.59 112.348 371.476 111.439 373.294 110.294L 376.93 116.96C 374.64 118.441 372.082 119.687 369.254 120.697C 366.426 121.707 363.396 122.212 360.164 122.212ZM 346.226 91.811L 369.759 91.811C 369.759 82.9903 366.123 78.58 358.851 78.58C 355.753 78.58 352.993 79.7247 350.569 82.014C 348.145 84.3033 346.697 87.569 346.226 91.811ZM 403.909 137.16L 428.654 49.29L 435.926 49.29L 411.181 137.16L 403.909 137.16ZM 441.148 108.678L 441.148 99.79L 461.247 92.619L 474.882 87.67L 474.882 87.266L 461.247 82.317L 441.148 75.146L 441.148 66.258L 485.487 83.529L 485.487 91.407L 441.148 108.678Z"/>
</defs>
</svg>
