<svg width="524" height="192" viewBox="0 0 524 192" version="1.1" xmlns="http://www.w3.org/2000/svg" xmlns:xlink="http://www.w3.org/1999/xlink">
<title>Live</title>
<desc>Created using Figma</desc>
<g id="Canvas" transform="translate(-1291 -234)">
<g id="Live">
<g id="btn">
<use xlink:href="#path0_fill" transform="translate(1291 234)" fill="#424242"/>
</g>
<g id="icon + Google play + Get it on">
<g id="live">
<use xlink:href="#path1_fill" transform="translate(1291 234)" fill="#FFFFFF"/>
</g>
</g>
</g>
</g>
<defs>
<path id="path0_fill" fill-rule="evenodd" d="M 12 0C 5.37258 0 0 5.37258 0 12L 0 180C 0 186.627 5.37258 192 12 192L 512 192C 518.627 192 524 186.627 524 180L 524 12C 524 5.37258 518.627 0 512 0L 12 0Z"/>
<path id="path1_fill" d="M 143.842 121L 143.842 54.845L 161.113 54.845C 171.28 54.845 179.125 57.6393 184.646 63.228C 190.235 68.7493 193.029 76.8967 193.029 87.67C 193.029 98.4433 190.268 106.692 184.747 112.415C 179.226 118.138 171.55 121 161.719 121L 143.842 121ZM 154.447 112.415L 160.406 112.415C 174.883 112.415 182.121 104.167 182.121 87.67C 182.121 71.51 174.883 63.43 160.406 63.43L 154.447 63.43L 154.447 112.415ZM 226.467 122.212C 219.734 122.212 214.044 119.956 209.398 115.445C 204.752 110.866 202.429 104.503 202.429 96.356C 202.429 90.9693 203.506 86.357 205.661 82.519C 207.816 78.6137 210.61 75.6173 214.044 73.53C 217.478 71.4427 221.114 70.399 224.952 70.399C 231.551 70.399 236.567 72.5537 240.001 76.863C 243.435 81.105 245.152 86.7273 245.152 93.73C 245.152 95.952 244.984 97.7363 244.647 99.083L 212.63 99.083C 213.101 103.729 214.684 107.399 217.377 110.092C 220.138 112.718 223.639 114.031 227.881 114.031C 230.036 114.031 232.056 113.694 233.941 113.021C 235.894 112.348 237.779 111.439 239.597 110.294L 243.233 116.96C 240.944 118.441 238.385 119.687 235.557 120.697C 232.729 121.707 229.699 122.212 226.467 122.212ZM 212.529 91.811L 236.062 91.811C 236.062 82.9903 232.426 78.58 225.154 78.58C 222.057 78.58 219.296 79.7247 216.872 82.014C 214.448 84.3033 213 87.569 212.529 91.811ZM 256.558 121L 256.558 71.611L 265.244 71.611L 266.052 78.479L 266.355 78.479C 268.442 76.1897 270.732 74.2707 273.223 72.722C 275.714 71.1733 278.509 70.399 281.606 70.399C 285.242 70.399 288.137 71.207 290.292 72.823C 292.447 74.3717 294.096 76.56 295.241 79.388C 297.665 76.8293 300.156 74.7083 302.715 73.025C 305.341 71.2743 308.203 70.399 311.3 70.399C 316.417 70.399 320.222 72.0823 322.713 75.449C 325.204 78.8157 326.45 83.63 326.45 89.892L 326.45 121L 315.946 121L 315.946 91.205C 315.946 86.963 315.273 83.933 313.926 82.115C 312.579 80.297 310.526 79.388 307.765 79.388C 304.466 79.388 300.796 81.61 296.756 86.054L 296.756 121L 286.252 121L 286.252 91.205C 286.252 86.963 285.579 83.933 284.232 82.115C 282.953 80.297 280.899 79.388 278.071 79.388C 274.772 79.388 271.102 81.61 267.062 86.054L 267.062 121L 256.558 121ZM 361.082 122.212C 354.954 122.212 349.534 119.956 344.821 115.445C 340.175 110.934 337.852 104.571 337.852 96.356C 337.852 88.1413 340.175 81.7783 344.821 77.267C 349.534 72.6883 354.954 70.399 361.082 70.399C 367.209 70.399 372.629 72.6883 377.343 77.267C 382.056 81.7783 384.413 88.1413 384.413 96.356C 384.413 104.571 382.056 110.934 377.343 115.445C 372.629 119.956 367.209 122.212 361.082 122.212ZM 361.082 113.627C 364.92 113.627 367.95 112.045 370.172 108.88C 372.461 105.715 373.606 101.541 373.606 96.356C 373.606 91.1713 372.461 86.9967 370.172 83.832C 367.95 80.6 364.92 78.984 361.082 78.984C 357.244 78.984 354.18 80.6 351.891 83.832C 349.669 86.9967 348.558 91.1713 348.558 96.356C 348.558 101.541 349.669 105.715 351.891 108.88C 354.18 112.045 357.244 113.627 361.082 113.627Z"/>
</defs>
</svg>
